<svg width="16" height="29" viewBox="0 0 16 29" fill="none" xmlns="http://www.w3.org/2000/svg">
<path d="M16 20.7473V23.409H12.1115V20.7473C12.1115 18.4083 10.267 16.506 8.00026 16.506C5.73303 16.506 3.88904 18.4089 3.88904 20.7473C3.88904 23.0862 5.73354 24.9885 8.00026 24.9885V29C3.58849 29 0 25.298 0 20.7473C0 18.2525 1.08 16.0146 2.7812 14.5C1.08 12.9854 0 10.7475 0 8.25274C0 3.70198 3.58849 -8.97549e-07 7.99974 -8.97549e-07V4.0115C5.73251 4.0115 3.88852 5.91434 3.88852 8.25274C3.88852 10.5917 5.73303 12.494 7.99974 12.494C10.267 12.494 12.111 10.5911 12.111 8.25274V5.59099H15.9995V8.25274C15.9995 10.7475 14.9195 12.9854 13.2183 14.5C14.9195 16.0146 15.9995 18.2525 15.9995 20.7473H16Z" fill="white"/>
</svg>
