<svg width="140" height="40" viewBox="0 0 140 40" fill="none" xmlns="http://www.w3.org/2000/svg">
<rect width="140" height="40" rx="20" fill="white"/>
<path d="M50 24.5239V26.4513H47.0836V24.5239C47.0836 22.8302 45.7002 21.4526 44.0002 21.4526C42.2998 21.4526 40.9168 22.8306 40.9168 24.5239C40.9168 26.2176 42.3002 27.5951 44.0002 27.5951V30.5C40.6914 30.5 38 27.8193 38 24.5239C38 22.7173 38.81 21.0968 40.0859 20C38.81 18.9032 38 17.2827 38 15.4761C38 12.1807 40.6914 9.5 43.9998 9.5V12.4049C42.2994 12.4049 40.9164 13.7828 40.9164 15.4761C40.9164 17.1698 42.2998 18.5474 43.9998 18.5474C45.7002 18.5474 47.0832 17.1694 47.0832 15.4761V13.5487H49.9996V15.4761C49.9996 17.2827 49.1896 18.9032 47.9137 20C49.1896 21.0968 49.9996 22.7173 49.9996 24.5239H50Z" fill="black"/>
<path d="M73.26 26.5H69.04L65.54 21.48L64.64 22.6V26.5H61.2V13.16H64.64V18.64L68.74 13.16H72.98L67.8 19.4L73.26 26.5ZM72.8052 19.84C72.8052 15.78 75.8652 12.94 79.9452 12.94C84.0252 12.94 87.0652 15.78 87.0652 19.84C87.0652 23.9 84.0252 26.74 79.9452 26.74C75.8652 26.74 72.8052 23.9 72.8052 19.84ZM83.5652 19.84C83.5652 17.66 82.1452 15.98 79.9452 15.98C77.7252 15.98 76.3052 17.66 76.3052 19.84C76.3052 22 77.7252 23.7 79.9452 23.7C82.1452 23.7 83.5652 22 83.5652 19.84ZM95.2377 26.74C91.2377 26.74 88.1177 23.94 88.1177 19.84C88.1177 15.72 91.2377 12.94 95.2377 12.94C98.5577 12.94 100.278 14.76 101.158 16.52L98.1977 17.92C97.7577 16.86 96.6177 15.98 95.2377 15.98C93.1577 15.98 91.6177 17.66 91.6177 19.84C91.6177 22.02 93.1577 23.7 95.2377 23.7C96.6177 23.7 97.7577 22.82 98.1977 21.76L101.158 23.16C100.298 24.88 98.5577 26.74 95.2377 26.74Z" fill="black"/>
</svg>
