<svg width="46" height="17" viewBox="0 0 46 17" fill="none" xmlns="http://www.w3.org/2000/svg">
<path d="M13.8385 16H9.11617L5.1995 10.3824L4.19236 11.6357V16H0.342834V1.07187H4.19236V7.20426L8.78045 1.07187H13.5252L7.72855 8.05473L13.8385 16Z" fill="white"/>
<path d="M13.3296 8.54711C13.3296 4.00378 16.7538 0.825684 21.3196 0.825684C25.8853 0.825684 29.2872 4.00378 29.2872 8.54711C29.2872 13.0904 25.8853 16.2685 21.3196 16.2685C16.7538 16.2685 13.3296 13.0904 13.3296 8.54711ZM25.3705 8.54711C25.3705 6.10759 23.7815 4.22759 21.3196 4.22759C18.8353 4.22759 17.2462 6.10759 17.2462 8.54711C17.2462 10.9643 18.8353 12.8666 21.3196 12.8666C23.7815 12.8666 25.3705 10.9643 25.3705 8.54711Z" fill="white"/>
<path d="M38.4326 16.2685C33.9564 16.2685 30.465 13.1352 30.465 8.54711C30.465 3.93664 33.9564 0.825684 38.4326 0.825684C42.1478 0.825684 44.0726 2.86235 45.0574 4.83187L41.745 6.39854C41.2526 5.21235 39.9769 4.22759 38.4326 4.22759C36.105 4.22759 34.3816 6.10759 34.3816 8.54711C34.3816 10.9866 36.105 12.8666 38.4326 12.8666C39.9769 12.8666 41.2526 11.8819 41.745 10.6957L45.0574 12.2624C44.095 14.1871 42.1478 16.2685 38.4326 16.2685Z" fill="white"/>
</svg>
